#!OML:ASF Y:\EmotionMaleHayes\Project 1\Capture day 1\Session 1\Male1.ASF
:FULLY-SPECIFIED
:DEGREES
195
root -12.9732 15.599 -0.0880449 113.987 66.8195 105.388
lowerback 12.1207 -1.96306 -25.3552
upperback 4.62496 -4.91895 -4.20366
thorax 0.264711 -2.5335 9.87977
lowerneck -24.8434 2.96943 4.63027
upperneck 19.5955 2.03554 1.66353
head 10.4103 1.52283 0.172928
rclavicle -5.19325e-015 1.92821e-014
rhumerus -65.359 31.8894 -75.1799
rradius 62.8636
rwrist -10.8144
rhand -9.5665 -25.8773
rfingers 7.12502
rthumb 16.4011 -55.2039
lclavicle -5.19325e-015 1.92821e-014
lhumerus 9.47024 -25.2648 69.3665
lradius 69.3301
lwrist 11.9235
lhand -30.2308 -28.2873
lfingers 7.12502
lthumb -3.54031 1.66302
rfemur -50.9596 -13.4237 -5.97073
rtibia 30.7199
rfoot -12.3127 -4.18341
rtoes 10.7735
lfemur 20.6425 6.37834 -39.846
ltibia 2.59259
lfoot -19.6008 -18.5578
ltoes 7.49823
196
root -12.7218 15.53 -0.097336 114.793 66.928 106.063
lowerback 12.0441 -2.06412 -25.1238
upperback 4.59164 -5.026 -3.96804
thorax 0.300699 -2.59999 10.0283
lowerneck -24.9739 2.97445 4.89628
upperneck 19.6403 1.9647 1.54317
head 10.4541 1.49689 0.0777674
rclavicle 1.32689e-014 -3.26255e-014
rhumerus -64.4796 30.8897 -73.4358
rradius 62.6973
rwrist -10.1509
rhand -9.00374 -25.7407
rfingers 7.12502
rthumb 16.9428 -55.0217
lclavicle 1.32689e-014 -3.26255e-014
lhumerus 9.84245 -25.6541 68.2218
lradius 70.8537
lwrist 11.923
lhand -31.4325 -29.3434
lfingers 7.12502
lthumb -4.70076 0.584495
rfemur -51.3775 -13.2824 -6.00009
rtibia 30.9863
rfoot -12.6799 -4.09039
rtoes 10.4551
lfemur 21.3276 5.5243 -39.6844
ltibia 2.81835
lfoot -19.7453 -18.2557
ltoes 7.36441
197
root -12.4577 15.4734 -0.108819 115.856 67.1168 107.266
lowerback 12.1849 -2.17746 -24.7113
upperback 4.61528 -5.18509 -3.66881
thorax 0.285897 -2.69026 10.1705
lowerneck -24.8323 2.977 5.15376
upperneck 19.4341 1.94648 1.29479
head 10.359 1.47183 -0.0597826
rclavicle -7.50412e-015 4.32357e-015
rhumerus -63.4212 29.7596 -71.6463
rradius 62.3834
rwrist -9.35287
rhand -8.23811 -26.3327
rfingers 7.12502
rthumb 17.6797 -55.5489
lclavicle -7.50412e-015 4.32357e-015
lhumerus 9.9498 -25.9644 67.3126
lradius 72.3571
lwrist 11.8888
lhand -32.475 -30.1321
lfingers 7.12502
lthumb -5.70734 -0.228977
rfemur -51.2574 -12.9546 -5.95475
rtibia 31.4752
rfoot -12.9064 -4.39572
rtoes 8.94798
lfemur 22.3044 4.61981 -39.3616
ltibia 3.10058
lfoot -19.8211 -17.6142
ltoes 6.31927
198
root -12.1831 15.4281 -0.123639 116.981 67.4571 108.758
lowerback 12.4621 -2.27966 -24.1206
upperback 4.71342 -5.33662 -3.25616
thorax 0.269461 -2.78469 10.3533
lowerneck -24.6726 2.93737 5.12825
upperneck 19.1552 1.9526 1.13414
head 10.2298 1.44546 -0.11693
rclavicle 1.81888e-014 -5.60573e-014
rhumerus -62.1402 28.63 -69.7608
rradius 61.9754
rwrist -8.62243
rhand -8.03487 -27.0067
rfingers 7.12502
rthumb 17.8753 -56.2052
lclavicle 1.81888e-014 -5.60573e-014
lhumerus 9.56271 -25.9432 66.9654
lradius 73.9355
lwrist 11.6332
lhand -33.3347 -30.6703
lfingers 7.12502
lthumb -6.53738 -0.791242
rfemur -50.9138 -12.5728 -5.59566
rtibia 32.3636
rfoot -12.0011 -4.88799
rtoes 11.3775
lfemur 23.5179 3.70197 -38.8673
ltibia 3.49712
lfoot -20.0541 -16.7828
ltoes 3.48016
199
root -11.9055 15.3922 -0.148368 117.775 68.1367 109.909
lowerback 12.6173 -2.34993 -23.1302
upperback 4.81304 -5.36973 -2.8353
thorax 0.231124 -2.8161 10.3179
lowerneck -24.4514 2.88471 5.04162
upperneck 18.9078 1.94624 1.05856
head 10.1002 1.42084 -0.135848
rclavicle 1.10425e-013 1.03169e-013
rhumerus -60.7552 27.3756 -67.9524
rradius 61.349
rwrist -7.79558
rhand -8.46671 -26.8848
rfingers 7.12502
rthumb 17.4597 -56.1207
lclavicle 1.10425e-013 1.03169e-013
lhumerus 8.9696 -26.0436 66.6695
lradius 75.5208
lwrist 11.5784
lhand -34.1461 -31.1193
lfingers 7.12502
lthumb -7.32055 -1.26596
rfemur -50.7694 -12.2006 -4.60018
rtibia 33.8021
rfoot -12.1526 -5.0196
rtoes 16.8706
lfemur 24.7464 2.63684 -38.4196
ltibia 3.84562
lfoot -20.3199 -15.4583
ltoes 0.245642
200
root -11.6259 15.3694 -0.177414 118.932 68.8845 111.353
lowerback 12.7982 -2.45144 -21.9388
upperback 4.80749 -5.44626 -2.37981
thorax 0.050927 -2.84601 10.2194
lowerneck -23.8773 2.86472 5.0558
upperneck 18.5193 2.02357 0.772583
head 9.8632 1.41342 -0.237611
rclavicle 4.37326e-014 -4.77083e-015
rhumerus -59.5816 26.0375 -66.2249
rradius 60.7783
rwrist -6.79798
rhand -8.8892 -26.5207
rfingers 7.12502
rthumb 17.0531 -55.7922
lclavicle 4.37326e-014 -4.77083e-015
lhumerus 8.02189 -26.3317 66.4936
lradius 77.1724
lwrist 11.5196
lhand -34.7862 -31.6428
lfingers 7.12502
lthumb -7.9384 -1.81183
rfemur -50.4976 -12.0454 -3.42598
rtibia 35.4124
rfoot -9.22039 -4.94389
rtoes 12.9681
lfemur 25.8443 1.2529 -38.1768
ltibia 4.25231
lfoot -20.3671 -13.5271
ltoes -3.22132
201
root -11.3413 15.3618 -0.200258 120.509 69.4489 113.128
lowerback 12.9936 -2.56153 -20.9584
upperback 4.82059 -5.5449 -1.88672
thorax -0.0772245 -2.89488 10.2692
lowerneck -23.6032 2.91818 5.25098
upperneck 18.2146 2.16654 0.261347
head 9.7166 1.42409 -0.433017
rclavicle 5.1684e-015 4.77083e-015
rhumerus -58.3753 24.4185 -64.41
rradius 60.4571
rwrist -5.59084
rhand -8.89093 -26.2461
rfingers 7.12502
rthumb 17.0514 -55.5177
lclavicle 5.1684e-015 4.77083e-015
lhumerus 6.71276 -26.5544 66.77
lradius 78.8834
lwrist 11.5739
lhand -35.1367 -32.1216
lfingers 7.12502
lthumb -8.27672 -2.30371
rfemur -50.1515 -12.0263 -2.55981
rtibia 37.1481
rfoot -7.35465 -5.07568
rtoes 15.6593
lfemur 26.7298 -0.304763 -38.1595
ltibia 4.8834
lfoot -20.1214 -11.453
ltoes -6.87529
202
root -11.0473 15.3693 -0.22638 121.37 69.8731 114.059
lowerback 12.9876 -2.64592 -20.2137
upperback 4.78467 -5.58994 -1.49959
thorax -0.150253 -2.9184 10.305
lowerneck -23.3338 2.97711 5.42433
upperneck 18.0872 2.29308 -0.116006
head 9.63372 1.44672 -0.578328
rclavicle -1.21259e-014 -2.26615e-014
rhumerus -57.2409 22.7363 -62.8107
rradius 60.195
rwrist -4.30974
rhand -8.85554 -26.1514
rfingers 7.12502
rthumb 17.0855 -55.4202
lclavicle -1.21259e-014 -2.26615e-014
lhumerus 4.98441 -26.661 67.394
lradius 80.6645
lwrist 11.488
lhand -35.2573 -32.5526
lfingers 7.12502
lthumb -8.39311 -2.73933
rfemur -50.1041 -11.9052 -1.95877
rtibia 39.1126
rfoot -7.2611 -5.27244
rtoes 19.1992
lfemur 27.4357 -1.55627 -38.4373
ltibia 5.70577
lfoot -19.4568 -9.6717
ltoes -9.55057
203
root -10.7563 15.3876 -0.262007 120.286 70.6783 112.928
lowerback 12.8277 -2.51797 -19.4567
upperback 4.70027 -5.33172 -1.14356
thorax -0.29489 -2.78282 10.2669
lowerneck -23.0899 3.01456 5.4509
upperneck 18.0308 2.43194 -0.468151
head 9.57902 1.4693 -0.688495
rclavicle -9.34288e-015 -2.0276e-014
rhumerus -56.0235 21.1366 -61.4629
rradius 59.6837
rwrist -3.3483
rhand -9.60449 -26.1242
rfingers 7.12502
rthumb 16.3645 -55.4539
lclavicle -9.34288e-015 -2.0276e-014
lhumerus 3.11816 -26.8917 68.081
lradius 82.3635
lwrist 11.654
lhand -35.1494 -32.7311
lfingers 7.12502
lthumb -8.289 -2.91373
rfemur -50.8093 -11.1998 -1.02588
rtibia 41.6525
rfoot -8.78292 -5.60494
rtoes 15.7772
lfemur 27.906 -2.24669 -38.8875
ltibia 6.63345
lfoot -18.4465 -7.66953
ltoes -12.1198
204
root -10.4636 15.4161 -0.273829 120.992 71.7876 113.65
lowerback 12.8944 -2.48084 -18.3546
upperback 4.62179 -5.19836 -0.558326
thorax -0.528608 -2.70335 10.3158
lowerneck -23.0604 3.11206 5.49933
upperneck 18.0132 2.6519 -0.915811
head 9.58042 1.51951 -0.821116
rclavicle 2.76311e-014 2.62396e-014
rhumerus -54.637 19.3811 -60.2261
rradius 58.9602
rwrist -2.56102
rhand -10.7152 -26.0637
rfingers 7.12502
rthumb 15.2949 -55.4782
lclavicle 2.76311e-014 2.62396e-014
lhumerus 1.04939 -27.2392 69.0255
lradius 83.711
lwrist 11.8378
lhand -35.0694 -32.7837
lfingers 7.12502
lthumb -8.21173 -2.96329
rfemur -50.7667 -10.2341 0.151542
rtibia 42.9407
rfoot -10.3368 -7.40561
rtoes 8.55631
lfemur 28.2144 -3.15128 -38.3709
ltibia 7.88452
lfoot -16.8956 -5.95481
ltoes -14.2464
205
root -10.1566 15.4516 -0.276112 122.479 73.2508 115.267
lowerback 12.9229 -2.46055 -16.8816
upperback 4.66154 -5.00863 0.0640788
thorax -0.659032 -2.6063 10.1768
lowerneck -23.3346 3.30055 5.86299
upperneck 18.0878 2.89474 -1.47144
head 9.67734 1.58944 -1.03569
rclavicle -6.63941e-014 2.06736e-014
rhumerus -52.9852 17.3081 -59.1872
rradius 57.9545
rwrist -1.7531
rhand -11.7313 -25.6443
rfingers 7.12502
rthumb 14.316 -55.1308
lclavicle -6.63941e-014 2.06736e-014
lhumerus -1.20469 -27.6622 70.0984
lradius 85.0036
lwrist 11.8752
lhand -34.9317 -32.7323
lfingers 7.12502
lthumb -8.07887 -2.90667
rfemur -50.3509 -9.02188 1.81322
rtibia 43.8912
rfoot -10.4345 -8.69524
rtoes 9.42092
lfemur 28.4691 -4.02943 -37.2116
ltibia 9.31278
lfoot -14.8637 -4.73882
ltoes -12.6731
206
root -9.84299 15.501 -0.274355 124.14 74.3361 117.11
lowerback 12.5036 -2.63445 -15.7607
upperback 4.93107 -5.00074 0.548898
thorax -0.208569 -2.65569 10.0366
lowerneck -23.1815 3.53493 6.26222
upperneck 17.8148 3.21924 -2.0432
head 9.58353 1.69599 -1.25402
rclavicle -6.0033e-014 1.35174e-014
rhumerus -50.7761 15.1508 -58.3788
rradius 56.5968
rwrist -0.500296
rhand -12.2823 -25.0694
rfingers 7.12502
rthumb 13.7849 -54.5927
lclavicle -6.0033e-014 1.35174e-014
lhumerus -3.48631 -27.8407 71.0559
lradius 86.204
lwrist 11.8143
lhand -34.65 -32.6555
lfingers 7.12502
lthumb -7.80701 -2.81968
rfemur -49.367 -8.2435 3.22853
rtibia 44.2949
rfoot -10.7713 -8.98026
rtoes 11.2428
lfemur 28.4424 -4.78171 -36.2218
ltibia 11.2089
lfoot -12.4126 -3.95152
ltoes -9.14315
